# xmcd CD database file
#
# Track frame offsets:
#	150
#	34566
#	63561
#	92144
#	123839
#	147597
#	172826
#	204281
#	240477
#	282295
#
# Disc length: 4226 seconds
#
# Revision: 0
# Processed by: cddbd v1.5.1PL2 Copyright (c) Steve Scherf et al.
# Submitted via: CDex 1.51
#
DISCID=8510800a
DTITLE=Akiko Grace - ILLUME
DYEAR=2006
DGENRE=Jazz
TTITLE0=Looking Glass
TTITLE1=Light and Shadows
TTITLE2=Pacific Wind
TTITLE3=Dream
TTITLE4=Drift
TTITLE5=Departure
TTITLE6=Whisper Prayer
TTITLE7=Angel Within
TTITLE8=Imagine
TTITLE9=Sakura
EXTD=YEAR: 2006
EXTT0=
EXTT1=
EXTT2=
EXTT3=
EXTT4=
EXTT5=
EXTT6=
EXTT7=
EXTT8=
EXTT9=
PLAYORDER=
